PathFileType	4	(X/Y/Z)	Formatted/subject18/trials/walk2/markers.trc
DataRate	CameraRate	NumFrames	NumMarkers	Units	OrigDataRate	OrigDataStartFrame	OrigNumFrames
200.00000000000426	200.00000000000426	4	64	m	200.00000000000426	107	215
Frame#	Time	CLAV			C7			RACR			RASH			RPSH			RLEL			RMEL			RUA1			RUA2			RUA3			RFAsuperior			RFAradius			RFAulna			RASI			RPSI			RCAL			RTOE			RMT5			RTH1			RTH2			RTH3			RTB1			RTB2			RTB3			RLFC			RMFC			RLMAL			RMMAL			RHJC			RKJC			REJC			RAJC			RSJC			LACR			LASH			LPSH			LLEL			LMEL			LUA1			LUA2			LUA3			LFAsuperior			LFAradius			LFAulna			LASI			LPSI			LCAL			LTOE			LMT5			LTH1			LTH2			LTH3			LTB1			LTB2			LTB3			LLFC			LMFC			LLMAL			LMMAL			LHJC			LKJC			LEJC			LAJC			LSJC			
		X1	Y1	Z1	X2	Y2	Z2	X3	Y3	Z3	X4	Y4	Z4	X5	Y5	Z5	X6	Y6	Z6	X7	Y7	Z7	X8	Y8	Z8	X9	Y9	Z9	X10	Y10	Z10	X11	Y11	Z11	X12	Y12	Z12	X13	Y13	Z13	X14	Y14	Z14	X15	Y15	Z15	X16	Y16	Z16	X17	Y17	Z17	X18	Y18	Z18	X19	Y19	Z19	X20	Y20	Z20	X21	Y21	Z21	X22	Y22	Z22	X23	Y23	Z23	X24	Y24	Z24	X25	Y25	Z25	X26	Y26	Z26	X27	Y27	Z27	X28	Y28	Z28	X29	Y29	Z29	X30	Y30	Z30	X31	Y31	Z31	X32	Y32	Z32	X33	Y33	Z33	X34	Y34	Z34	X35	Y35	Z35	X36	Y36	Z36	X37	Y37	Z37	X38	Y38	Z38	X39	Y39	Z39	X40	Y40	Z40	X41	Y41	Z41	X42	Y42	Z42	X43	Y43	Z43	X44	Y44	Z44	X45	Y45	Z45	X46	Y46	Z46	X47	Y47	Z47	X48	Y48	Z48	X49	Y49	Z49	X50	Y50	Z50	X51	Y51	Z51	X52	Y52	Z52	X53	Y53	Z53	X54	Y54	Z54	X55	Y55	Z55	X56	Y56	Z56	X57	Y57	Z57	X58	Y58	Z58	X59	Y59	Z59	X60	Y60	Z60	X61	Y61	Z61	X62	Y62	Z62	X63	Y63	Z63	X64	Y64	Z64	

108	2.975	1.495575317647041	1.404867498096537	-0.4764837812098764	1.392438724817689	1.504740860920293	-0.4922627577633359	1.420413340846427	1.468268321180751	-0.3324991723545549	1.473112268064068	1.414619475954518	-0.3532531340076251	1.360662171098588	1.442253864998219	-0.3388379670070299	1.372589076538402	1.154862099523809	-0.2023412458607779	1.347723705873249	1.129406855553232	-0.2693190879158766	1.436458980242673	1.365831603959648	-0.2711929663491711	1.38064918715354	1.322059916009703	-0.264634962912092	1.425143255781234	1.262953114977171	-0.2636922573485303	1.449729769826881	1.109690495893483	-0.2297379013756218	1.556052814841585	0.983225355763367	-0.230696122356361	1.514203937662765	0.9489528548582516	-0.1977200344455124	1.438406637398483	1.019208839994895	-0.3602496305440449	1.279230065145117	1.066417138611814	-0.4376744638202406	0.9785675055533234	0.08286723640181767	-0.4091319129202781	1.189304687369145	0.01590674420996361	-0.4374810358227706	1.173831021145341	0.02484881177944671	-0.3653692253826106	1.376869748929977	0.7823986254878065	-0.3167670516517932	1.370043057095294	0.6596711358341825	-0.355093098500991	1.261200593872069	0.5616949475390831	-0.3418062267615121	1.216506230652111	0.3621029388391194	-0.4055360145717324	1.132212808820273	0.3023939661423443	-0.3433453013828173	1.129398301935223	0.1831650094565167	-0.4063888947626484	1.237002818237941	0.4840576809283015	-0.3490190803236872	1.241605258383549	0.4959896181774829	-0.4610852083962401	1.050426570006744	0.1054958884318134	-0.363913668724521	1.068874084085066	0.1062249361062665	-0.4446835032393303	1.381167030199888	0.9107011044090363	-0.3830597044509439	1.244836489199042	0.5008736870564388	-0.4107996615147711	1.373768714031672	1.142309654848996	-0.242019535449629	1.0428722357615	0.09493332523084691	-0.4093692966117315	1.431078085127114	1.422775619251522	-0.3301386726286427	1.410403454128194	1.470628646989278	-0.6573141933414181	1.455429425633152	1.408663031774136	-0.6235474621230226	1.351356197922859	1.448845796970923	-0.6394625977928451	1.320356777492567	1.145344782807243	-0.7495502319048968	1.306523993498452	1.138227446098072	-0.6783435462065197	1.373313220850564	1.348506336812545	-0.7140645880305816	1.320410513967283	1.289530813829235	-0.681639488809653	1.380978742179708	1.263864841975674	-0.7168054051624381	1.363331372819001	1.072098746641376	-0.7409073523766329	1.391002746170179	0.9128534659478825	-0.7588153873910426	1.334598895129044	0.9131764092734064	-0.7804723260161833	1.447592153708201	1.018914496083096	-0.6145814150600768	1.277854132169347	1.064252586971807	-0.5378542772841892	1.603275440354865	0.04863951080579773	-0.5838968863045374	1.82716311270814	0.06320749162385125	-0.5272102399089519	1.805732651734118	0.07323176135465076	-0.6200347850071393	1.423199934552501	0.7948020358370216	-0.666879725908709	1.515046357108898	0.7244853084426238	-0.6420937771220736	1.511685667513827	0.602612051132638	-0.6353344717422216	1.610844521212794	0.3981593648097567	-0.5704457372912842	1.597830644136049	0.2802190039361135	-0.6298744416751324	1.669961049299604	0.1904539294846599	-0.5841866981544576	1.542348449757799	0.5231616687094203	-0.6274708469079517	1.553666664248062	0.5243189813646851	-0.5132519219435486	1.652245131469474	0.1003072953849293	-0.6235954418756148	1.661774705953073	0.1061182463170328	-0.546669243597205	1.376216417715495	0.9247086818561848	-0.5997322282668427	1.550167953072691	0.5259258254983461	-0.5721177815213282	1.32754045907879	1.141390638840074	-0.7093109006690218	1.65621332036198	0.08513981755644628	-0.5785410399277228	1.41978909791213	1.42078917107091	-0.653300612672812	
109	2.98	1.502248726750427	1.404366167412614	-0.4772500026242246	1.398937564247085	1.504051399630473	-0.4930765519362886	1.426997097241916	1.467726232513979	-0.3332942833275737	1.47978578722825	1.41415566641325	-0.3540223103796041	1.367290093408281	1.441604662317873	-0.3396086952601666	1.379381066046363	1.154336256129005	-0.2030583441830993	1.354600731982589	1.12883188991436	-0.2700490135181032	1.443119900738837	1.36533754551042	-0.2719341211060081	1.387344441149574	1.321517024893036	-0.2654102296179565	1.431892044341478	1.262451618760421	-0.2644034459416296	1.456637974364198	1.10932269512528	-0.2304024718159716	1.563246547763196	0.9830977489847239	-0.2313051381002536	1.521453923549946	0.9487276071759757	-0.1983593473715488	1.44548869691451	1.018236555482538	-0.3607930482970139	1.286401681423454	1.065605812694711	-0.4383035920558944	0.9795812871670403	0.08541687864197976	-0.4091582454708263	1.189452573918146	0.0156864013462064	-0.4372517254462513	1.17403791053231	0.02491691092987013	-0.3651636267800515	1.383175834309869	0.7816366591137811	-0.3172170884617241	1.375974620976018	0.6588640675314666	-0.3553295482072668	1.266712851337557	0.5613398618255312	-0.3421594597164747	1.220521260426665	0.3619433766926902	-0.4056824605857612	1.135519169777261	0.303227522454638	-0.3435107609315245	1.131501106293571	0.1839484132701643	-0.4063940616212774	1.242231223016274	0.4837842521217861	-0.3492924848223807	1.247190641708507	0.495484715291086	-0.4613677897331644	1.051651143753008	0.1071891210787887	-0.3639068144043383	1.070200810437709	0.1076085636049736	-0.4446554514676654	1.388159176909769	0.909794902538668	-0.3837403135607341	1.250343777080483	0.5003950647835191	-0.4111025763136928	1.38060873866539	1.141769369059214	-0.2427306045918798	1.044037707941594	0.09664521467223208	-0.4093569128279838	1.437740750266645	1.422253494864213	-0.330907086504956	1.416938534960459	1.469868024249241	-0.658109315125247	1.462076138435304	1.408001223592792	-0.6243104476114569	1.357931454893021	1.447994256165366	-0.6402360598073625	1.326755660858319	1.144659495815928	-0.7502471073657508	1.313074841881151	1.137505682365751	-0.6790147226784399	1.379800537453832	1.347799192688187	-0.714768417117013	1.32696367527694	1.288809909582591	-0.6822610911702631	1.387454918887635	1.263158678649123	-0.7175699831231505	1.369643434863252	1.071364865572457	-0.741763386106376	1.397054216823233	0.9120938884140398	-0.7598428471523354	1.340592709746533	0.9125051671192455	-0.7813475155694372	1.454907982952897	1.018264472237593	-0.61511645114171	1.285117038374	1.063570138775693	-0.5384873194019986	1.6067633022489	0.04731389769187638	-0.583592794243501	1.830661660045761	0.0601596969448409	-0.526533153569186	1.809470425313217	0.07027256507170204	-0.61940299949691	1.430195755325387	0.7938843984782603	-0.6674430275757982	1.521857174736716	0.7233742291551865	-0.6425221335578891	1.518198845453152	0.6015169603215835	-0.6356304029779424	1.616421228200422	0.3966843549310173	-0.5704258637760811	1.602802795009993	0.2787677747831053	-0.6297662296999231	1.674347012353112	0.1886261499124176	-0.5838985256067684	1.548665342482277	0.5220017395460002	-0.6276599386592527	1.559915296971706	0.5232580549184962	-0.5134353162369212	1.656160903691985	0.09854834765394449	-0.6232504437023781	1.665618702762069	0.1043736196944902	-0.5463164709429623	1.383483427769913	0.9239779048830766	-0.6004683157844369	1.556491434451522	0.5248000492416585	-0.5722963777624726	1.334025188643412	1.140683823712807	-0.7100253183569808	1.659979030676169	0.08339896317623935	-0.5781769914502413	1.426410826646318	1.420047334211621	-0.6540661686731014	
110	2.985	1.508949321976025	1.40393430916576	-0.4780242285159922	1.405450592818712	1.503415442640593	-0.4939093986010473	1.433590062074186	1.467249495471818	-0.3341050712031878	1.486477358501525	1.41376399176376	-0.354801380487639	1.373931574588067	1.441012025239404	-0.3403974921225149	1.386127872031615	1.15385854432001	-0.2038560314983044	1.361452067540067	1.128319300210808	-0.2708719931290996	1.449773300694912	1.364899416616657	-0.2726969019594183	1.394026917054819	1.321033046506119	-0.2662328966920332	1.438623214749279	1.262005586695938	-0.2651586595536447	1.463485887489878	1.10896256177983	-0.2311156101094684	1.57030153707011	0.9829120991029456	-0.2319141215200699	1.528529337125728	0.9484705628628687	-0.199017022764206	1.452654636398794	1.017300316539174	-0.3613527148558175	1.293650803658172	1.064829292681051	-0.4389361346127429	0.9807041421692799	0.08814835199496693	-0.4091666552124702	1.189602215636687	0.01547382018641982	-0.4370511923541304	1.17427425707501	0.02500102677269617	-0.3649832095547319	1.389618234500346	0.780925467537204	-0.3176908088595325	1.382080955138195	0.6581046116902464	-0.3555821415625497	1.272433593031414	0.5609991935198233	-0.3425226630534738	1.224720033034851	0.361809729706244	-0.405836314762209	1.13900732487242	0.3041245911163414	-0.3436753653092293	1.13373316687986	0.1848115028432797	-0.4064012009102999	1.247693194594504	0.4835180076784124	-0.3495711589734707	1.253003399008341	0.4949796501877075	-0.4616550700537793	1.052992863079725	0.1090000456621025	-0.3638947551184917	1.071630521235061	0.1091035090743243	-0.4446241515459292	1.395245313997795	0.9089336235205882	-0.3844512501167401	1.256081031844226	0.4999148537174352	-0.4114123854937755	1.387415282615135	1.141284464953845	-0.2435241191596638	1.0453105829222	0.09847905541562485	-0.4093385792280299	1.444418976900738	1.421798546750834	-0.3316883539272485	1.423503107345568	1.469155681336894	-0.6589206906374772	1.468758953256665	1.407396031593721	-0.6250839976754936	1.364538409823836	1.447183457256444	-0.6410283375485271	1.333290135662435	1.14399165878252	-0.7509664423270408	1.319746636031086	1.136801135188841	-0.6797115163836971	1.386358646257293	1.347126027751698	-0.7154925904514726	1.333596573525129	1.288109892421343	-0.6829126085930493	1.394025958075778	1.262488512691104	-0.7183488673749788	1.376095095544209	1.070655023277001	-0.742630321449168	1.403263483539568	0.9113607299144457	-0.7608695330610988	1.346748958713652	0.9118541910796349	-0.7822327415058632	1.462300095567279	1.017692672252593	-0.615667339165445	1.292454644712601	1.062938683721512	-0.5391238000340245	1.609322348786549	0.04596660911818198	-0.5833251791200099	1.833199025714713	0.0566217527272066	-0.5257318355920122	1.812334196797223	0.0668783986578609	-0.6186598020088954	1.437310562470882	0.7930395142835014	-0.6680272606030684	1.528788109120123	0.7223449766997213	-0.6429535381037773	1.524842697400725	0.6005039979539145	-0.6359333589218172	1.621848621881858	0.3951573598279394	-0.5703778830297592	1.607399994732923	0.2773102087961619	-0.6296598093776864	1.678114317237134	0.1866264253543142	-0.5835743467914544	1.555118866471549	0.5209273406673779	-0.6278515720422412	1.566276328017354	0.5222811895642518	-0.5136189921148321	1.659281679547999	0.09666925232287205	-0.6228980958957224	1.66862413570214	0.1024758220323211	-0.5459486177729941	1.39084281784879	0.9233128176676508	-0.6012321327193433	1.562963347567501	0.5237530778243833	-0.5724697510845469	1.340637160278119	1.139998510616807	-0.7107604687537146	1.662881829960507	0.08152348847152113	-0.5778054934424067	1.43306892457159	1.419355514708848	-0.6548450258503158	
111	2.99	1.51568383462147	1.40356750523207	-0.4788075063648006	1.411988823945255	1.502833348029792	-0.4947592679529497	1.440201986809137	1.466832698570933	-0.3349306122011317	1.49319437836531	1.413437431908644	-0.3555910667826708	1.380595278702655	1.440473279570806	-0.3412040413302916	1.39282814282087	1.153425027253144	-0.2047346952672565	1.368275520565652	1.127865985461645	-0.2717883420984897	1.456425022948906	1.364511119956726	-0.2734817251698137	1.40070100486966	1.3206038107404	-0.2671033957485909	1.44533908769755	1.261609277199357	-0.2659582587043067	1.470270744831289	1.108603442148259	-0.231877990409171	1.577211062613988	0.9826578540358853	-0.2325237646268727	1.535422436996101	0.9481725801963199	-0.1996934147886309	1.459891372009825	1.016414763194808	-0.3619273319276655	1.300968436017801	1.064098665827724	-0.4395814062950277	0.9819468546568673	0.09107017941338688	-0.4091573113073417	1.189753130468305	0.01527262634706784	-0.4368849647625074	1.174541706033846	0.02510257262141306	-0.3648329498933955	1.396185954740737	0.7802746905514326	-0.3181792409668505	1.388353165082957	0.6574026532109518	-0.3558440275871072	1.278355911587291	0.5606797342670609	-0.3428888198179986	1.229100537993875	0.3617101731811391	-0.4059939773168242	1.142678562646682	0.3050896854114936	-0.3438361963607208	1.136099388929366	0.1857615600273098	-0.4064099384026693	1.25338335541059	0.4832650772545243	-0.3498490702858605	1.259036057970799	0.4944831062012113	-0.4619408782974331	1.054460349685074	0.1109331413586613	-0.3638782247957389	1.073171092381027	0.1107168544689732	-0.444590490167728	1.402410488755508	0.9081288719294066	-0.385181270930585	1.262041256144514	0.4994407815378339	-0.4117227379756826	1.394186568717975	1.140850948106364	-0.2444004145890975	1.046699620378305	0.100440321900872	-0.4093152321172728	1.451120576847555	1.421404869927898	-0.3324828714668753	1.430106403609516	1.468495989185047	-0.659747298184046	1.475484502304715	1.406848978334723	-0.6258689580806595	1.371185434107823	1.446419779015751	-0.6418388984377803	1.339964267858593	1.143345318212472	-0.7517063749262357	1.326543259422299	1.136118777571543	-0.6804319185907085	1.39299387916006	1.346490629377848	-0.7162370118520204	1.340314786275804	1.287435523733112	-0.6835934299958407	1.400697267690824	1.261858019470303	-0.7191411622267705	1.382691445293347	1.069973496411243	-0.7435047627307036	1.409637592783129	0.9106582397917939	-0.761889979294701	1.353074957287679	0.9112269583757012	-0.7831235969859078	1.469762950182307	1.017181795256631	-0.6162324254069831	1.299860848137546	1.062356918454937	-0.5397727884903269	1.611014393506476	0.04461849930205083	-0.5831508632853267	1.834813017624719	0.05264587782084681	-0.5248325230023754	1.814373853225387	0.0631054473435135	-0.6178324411632958	1.444546275743202	0.7922683684708551	-0.6686263579235255	1.535833132730259	0.7213912432835179	-0.6433737617852456	1.53160433675708	0.5995660574314106	-0.6362453210135741	1.627117432703549	0.3935799980257423	-0.5703149127350202	1.61164486215261	0.2758564342886892	-0.6295839833023138	1.681293607096483	0.1844798284191258	-0.5832449924215636	1.561690991910933	0.5199289344985265	-0.6280521586023466	1.572710288683184	0.5213640418833065	-0.5138071598615142	1.661662143754691	0.09469950754622958	-0.6225822279214577	1.670834153663232	0.1004492488507778	-0.5456079813755421	1.398289866194435	0.9227082235096855	-0.6020098226864581	1.569552534645161	0.5227681243662017	-0.5726431425831072	1.347380355172836	1.139339093474801	-0.711514384104001	1.664973446342082	0.07954051318900884	-0.5774719385530792	1.439770503059177	1.418717599358905	-0.6556376039151453	
